<svg width="700" height="346" viewBox="0 0 700 346" fill="none" xmlns="http://www.w3.org/2000/svg">
<g clip-path="url(#clip0_126_37)">
<circle cx="26.2141" cy="147.214" r="26.2141" fill="#FF6666"/>
<circle cx="26.2141" cy="199.642" r="26.2141" fill="#7C92FD"/>
<circle cx="78.6423" cy="147.214" r="26.2141" fill="#FFC8C8"/>
<circle cx="78.6423" cy="199.642" r="26.2141" fill="#2ACF9D"/>
<path d="M149.081 141.529C155.776 141.529 161.649 142.837 166.701 145.455C171.813 148.072 175.739 151.815 178.478 156.684C181.277 161.492 182.677 167.091 182.677 173.481C182.677 179.872 181.277 185.471 178.478 190.279C175.739 195.027 171.813 198.709 166.701 201.326C161.649 203.943 155.776 205.251 149.081 205.251H126.806V141.529H149.081ZM148.625 194.387C155.32 194.387 160.493 192.562 164.145 188.91C167.796 185.258 169.622 180.115 169.622 173.481C169.622 166.847 167.796 161.674 164.145 157.962C160.493 154.188 155.32 152.301 148.625 152.301H139.587V194.387H148.625Z" fill="black"/>
<path d="M239.26 178.868C239.26 180.694 239.138 182.337 238.895 183.798H201.921C202.226 187.449 203.504 190.31 205.756 192.379C208.007 194.448 210.777 195.483 214.063 195.483C218.81 195.483 222.188 193.444 224.197 189.366H237.982C236.521 194.235 233.722 198.252 229.583 201.417C225.444 204.521 220.362 206.073 214.337 206.073C209.468 206.073 205.086 205.008 201.191 202.878C197.357 200.687 194.344 197.613 192.153 193.657C190.023 189.701 188.958 185.136 188.958 179.963C188.958 174.729 190.023 170.134 192.153 166.178C194.283 162.222 197.265 159.179 201.1 157.049C204.934 154.919 209.346 153.853 214.337 153.853C219.145 153.853 223.436 154.888 227.209 156.957C231.044 159.027 233.995 161.979 236.065 165.813C238.195 169.586 239.26 173.938 239.26 178.868ZM226.023 175.216C225.962 171.929 224.775 169.312 222.462 167.365C220.149 165.356 217.319 164.352 213.972 164.352C210.807 164.352 208.129 165.326 205.938 167.274C203.808 169.16 202.499 171.808 202.013 175.216H226.023Z" fill="black"/>
<path d="M267.943 206.073C263.805 206.073 260.092 205.343 256.805 203.882C253.519 202.36 250.902 200.322 248.954 197.765C247.067 195.209 246.033 192.379 245.85 189.275H258.723C258.966 191.223 259.909 192.835 261.553 194.114C263.257 195.392 265.356 196.031 267.852 196.031C270.286 196.031 272.173 195.544 273.512 194.57C274.912 193.596 275.612 192.349 275.612 190.827C275.612 189.184 274.76 187.967 273.056 187.175C271.412 186.323 268.765 185.41 265.113 184.437C261.34 183.524 258.236 182.58 255.801 181.606C253.428 180.633 251.358 179.142 249.593 177.133C247.889 175.125 247.037 172.416 247.037 169.008C247.037 166.208 247.828 163.652 249.411 161.339C251.054 159.027 253.367 157.201 256.349 155.862C259.392 154.523 262.952 153.853 267.03 153.853C273.056 153.853 277.864 155.375 281.454 158.418C285.045 161.4 287.023 165.448 287.388 170.56H275.155C274.973 168.552 274.121 166.969 272.599 165.813C271.138 164.596 269.16 163.987 266.665 163.987C264.352 163.987 262.557 164.413 261.279 165.265C260.061 166.117 259.453 167.304 259.453 168.825C259.453 170.53 260.305 171.838 262.009 172.751C263.713 173.603 266.361 174.486 269.952 175.399C273.603 176.311 276.616 177.255 278.99 178.229C281.363 179.202 283.402 180.724 285.106 182.793C286.871 184.802 287.784 187.48 287.845 190.827C287.845 193.748 287.023 196.365 285.38 198.678C283.798 200.991 281.485 202.817 278.442 204.156C275.46 205.434 271.96 206.073 267.943 206.073Z" fill="black"/>
<path d="M313.217 165.174V189.64C313.217 191.344 313.613 192.592 314.404 193.383C315.256 194.114 316.656 194.479 318.604 194.479H324.538V205.251H316.504C305.731 205.251 300.345 200.017 300.345 189.549V165.174H294.32V154.675H300.345V142.168H313.217V154.675H324.538V165.174H313.217Z" fill="black"/>
<path d="M340.212 148.65C337.96 148.65 336.074 147.95 334.552 146.55C333.091 145.089 332.361 143.294 332.361 141.164C332.361 139.034 333.091 137.269 334.552 135.869C336.074 134.408 337.96 133.678 340.212 133.678C342.464 133.678 344.32 134.408 345.781 135.869C347.303 137.269 348.063 139.034 348.063 141.164C348.063 143.294 347.303 145.089 345.781 146.55C344.32 147.95 342.464 148.65 340.212 148.65ZM346.511 154.675V205.251H333.73V154.675H346.511Z" fill="black"/>
<path d="M387.166 153.945C393.191 153.945 398.06 155.862 401.773 159.696C405.485 163.47 407.342 168.765 407.342 175.581V205.251H394.561V177.316C394.561 173.299 393.556 170.225 391.548 168.095C389.539 165.904 386.801 164.809 383.332 164.809C379.802 164.809 377.002 165.904 374.933 168.095C372.924 170.225 371.92 173.299 371.92 177.316V205.251H359.139V154.675H371.92V160.974C373.624 158.783 375.785 157.079 378.402 155.862C381.08 154.584 384.001 153.945 387.166 153.945Z" fill="black"/>
<path d="M416.209 179.781C416.209 174.668 417.213 170.134 419.222 166.178C421.291 162.222 424.06 159.179 427.529 157.049C431.059 154.919 434.985 153.853 439.306 153.853C443.08 153.853 446.366 154.614 449.166 156.136C452.026 157.657 454.309 159.574 456.013 161.887V154.675H468.885V205.251H456.013V197.857C454.37 200.23 452.087 202.208 449.166 203.791C446.305 205.312 442.988 206.073 439.215 206.073C434.955 206.073 431.059 204.977 427.529 202.786C424.06 200.595 421.291 197.522 419.222 193.566C417.213 189.549 416.209 184.954 416.209 179.781ZM456.013 179.963C456.013 176.859 455.404 174.212 454.187 172.021C452.97 169.769 451.326 168.065 449.257 166.908C447.188 165.691 444.966 165.082 442.593 165.082C440.219 165.082 438.028 165.661 436.02 166.817C434.011 167.973 432.368 169.678 431.09 171.929C429.873 174.12 429.264 176.738 429.264 179.781C429.264 182.824 429.873 185.502 431.09 187.814C432.368 190.066 434.011 191.801 436.02 193.018C438.089 194.235 440.28 194.844 442.593 194.844C444.966 194.844 447.188 194.266 449.257 193.109C451.326 191.892 452.97 190.188 454.187 187.997C455.404 185.745 456.013 183.067 456.013 179.963Z" fill="black"/>
<path d="M496.249 165.174V189.64C496.249 191.344 496.644 192.592 497.436 193.383C498.288 194.114 499.687 194.479 501.635 194.479H507.569V205.251H499.535C488.763 205.251 483.376 200.017 483.376 189.549V165.174H477.351V154.675H483.376V142.168H496.249V154.675H507.569V165.174H496.249Z" fill="black"/>
<path d="M523.244 148.65C520.992 148.65 519.105 147.95 517.583 146.55C516.123 145.089 515.392 143.294 515.392 141.164C515.392 139.034 516.123 137.269 517.583 135.869C519.105 134.408 520.992 133.678 523.244 133.678C525.495 133.678 527.352 134.408 528.812 135.869C530.334 137.269 531.095 139.034 531.095 141.164C531.095 143.294 530.334 145.089 528.812 146.55C527.352 147.95 525.495 148.65 523.244 148.65ZM529.543 154.675V205.251H516.762V154.675H529.543Z" fill="black"/>
<path d="M564.629 206.073C559.76 206.073 555.377 205.008 551.482 202.878C547.587 200.687 544.514 197.613 542.262 193.657C540.071 189.701 538.975 185.136 538.975 179.963C538.975 174.79 540.101 170.225 542.353 166.269C544.666 162.313 547.8 159.27 551.756 157.14C555.712 154.949 560.125 153.853 564.994 153.853C569.863 153.853 574.275 154.949 578.231 157.14C582.187 159.27 585.291 162.313 587.543 166.269C589.856 170.225 591.012 174.79 591.012 179.963C591.012 185.136 589.825 189.701 587.452 193.657C585.139 197.613 581.974 200.687 577.957 202.878C574.001 205.008 569.558 206.073 564.629 206.073ZM564.629 194.935C566.941 194.935 569.102 194.387 571.11 193.292C573.18 192.136 574.823 190.431 576.04 188.18C577.257 185.928 577.866 183.189 577.866 179.963C577.866 175.155 576.588 171.473 574.032 168.917C571.536 166.3 568.463 164.991 564.811 164.991C561.159 164.991 558.086 166.3 555.591 168.917C553.156 171.473 551.939 175.155 551.939 179.963C551.939 184.771 553.126 188.484 555.499 191.101C557.934 193.657 560.977 194.935 564.629 194.935Z" fill="black"/>
<path d="M628.414 153.945C634.44 153.945 639.309 155.862 643.021 159.696C646.734 163.47 648.59 168.765 648.59 175.581V205.251H635.809V177.316C635.809 173.299 634.805 170.225 632.796 168.095C630.788 165.904 628.049 164.809 624.58 164.809C621.05 164.809 618.25 165.904 616.181 168.095C614.173 170.225 613.168 173.299 613.168 177.316V205.251H600.387V154.675H613.168V160.974C614.873 158.783 617.033 157.079 619.65 155.862C622.328 154.584 625.25 153.945 628.414 153.945Z" fill="black"/>
<path d="M680.098 206.073C675.96 206.073 672.247 205.343 668.961 203.882C665.674 202.36 663.057 200.322 661.109 197.765C659.223 195.209 658.188 192.379 658.005 189.275H670.878C671.121 191.223 672.065 192.835 673.708 194.114C675.412 195.392 677.512 196.031 680.007 196.031C682.441 196.031 684.328 195.544 685.667 194.57C687.067 193.596 687.767 192.349 687.767 190.827C687.767 189.184 686.915 187.967 685.211 187.175C683.567 186.323 680.92 185.41 677.268 184.437C673.495 183.524 670.391 182.58 667.956 181.606C665.583 180.633 663.513 179.142 661.748 177.133C660.044 175.125 659.192 172.416 659.192 169.008C659.192 166.208 659.983 163.652 661.566 161.339C663.209 159.027 665.522 157.201 668.504 155.862C671.547 154.523 675.108 153.853 679.185 153.853C685.211 153.853 690.019 155.375 693.61 158.418C697.2 161.4 699.178 165.448 699.544 170.56H687.31C687.128 168.552 686.276 166.969 684.754 165.813C683.294 164.596 681.316 163.987 678.82 163.987C676.507 163.987 674.712 164.413 673.434 165.265C672.217 166.117 671.608 167.304 671.608 168.825C671.608 170.53 672.46 171.838 674.164 172.751C675.868 173.603 678.516 174.486 682.107 175.399C685.758 176.311 688.771 177.255 691.145 178.229C693.518 179.202 695.557 180.724 697.261 182.793C699.026 184.802 699.939 187.48 700 190.827C700 193.748 699.179 196.365 697.535 198.678C695.953 200.991 693.64 202.817 690.597 204.156C687.615 205.434 684.115 206.073 680.098 206.073Z" fill="black"/>
</g>
<defs>
<clipPath id="clip0_126_37">
<rect width="700" height="346" fill="white"/>
</clipPath>
</defs>
</svg>
