<svg width="700" height="346" viewBox="0 0 700 346" fill="none" xmlns="http://www.w3.org/2000/svg">
<path d="M108.556 222.459C104.157 222.459 100.914 223.465 98.8265 225.478C96.8136 227.417 95.8071 230.399 95.8071 234.425V245.943C95.8071 250.417 96.8136 253.399 98.8265 254.89C100.914 256.381 104.157 257.127 108.556 257.127H133.718V273.342H107.885C95.8816 273.342 87.2334 270.733 81.94 265.514C76.6467 260.295 74 253.101 74 243.931V235.767C74 226.597 76.6467 219.402 81.94 214.183C87.2334 208.89 95.8816 206.243 107.885 206.243H133.718V222.459H108.556Z" fill="black"/>
<path d="M214.299 235.767V243.819C214.299 253.138 211.466 260.593 205.8 266.185C200.208 271.702 192.194 274.46 181.756 274.46H173.928C163.491 274.46 155.439 271.702 149.773 266.185C144.106 260.593 141.273 253.138 141.273 243.819V235.767C141.273 226.448 144.106 219.029 149.773 213.512C155.439 207.921 163.491 205.125 173.928 205.125H181.756C192.194 205.125 200.208 207.921 205.8 213.512C211.466 219.029 214.299 226.448 214.299 235.767ZM192.492 233.978C192.492 229.653 191.672 226.448 190.032 224.36C188.466 222.198 185.633 221.117 181.533 221.117H174.152C170.051 221.117 167.181 222.198 165.541 224.36C163.901 226.448 163.081 229.653 163.081 233.978V245.496C163.081 249.895 163.901 253.175 165.541 255.337C167.181 257.425 170.051 258.469 174.152 258.469H181.533C185.633 258.469 188.466 257.425 190.032 255.337C191.672 253.175 192.492 249.895 192.492 245.496V233.978Z" fill="black"/>
<path d="M226.216 189.469H247.464V273.342H226.216V189.469Z" fill="black"/>
<path d="M263.129 189.469H284.377V273.342H263.129V189.469Z" fill="black"/>
<path d="M365.911 246.055H317.935V246.503C317.935 250.752 318.867 253.585 320.731 255.002C322.595 256.418 325.801 257.127 330.348 257.127H364.345V273.342H331.579C325.018 273.342 319.464 272.634 314.916 271.217C310.443 269.726 306.827 267.676 304.068 265.067C301.384 262.383 299.409 259.177 298.141 255.449C296.948 251.721 296.352 247.621 296.352 243.148V234.649C296.352 225.777 298.924 218.694 304.068 213.401C309.212 208.033 317.637 205.349 329.342 205.349H333.815C340.078 205.349 345.297 206.094 349.472 207.585C353.647 209.076 356.927 211.201 359.313 213.96C361.773 216.644 363.488 219.887 364.457 223.689C365.426 227.491 365.911 231.704 365.911 236.326V246.055ZM336.276 220.334H327.553C323.974 220.334 321.477 221.117 320.06 222.683C318.643 224.248 317.935 226.858 317.935 230.511V231.965H345.781V230.511C345.781 226.858 345.036 224.248 343.545 222.683C342.128 221.117 339.705 220.334 336.276 220.334Z" fill="black"/>
<path d="M409.102 222.459C404.703 222.459 401.46 223.465 399.373 225.478C397.36 227.417 396.353 230.399 396.353 234.425V245.943C396.353 250.417 397.36 253.399 399.373 254.89C401.46 256.381 404.703 257.127 409.102 257.127H430.909V273.342H408.431C396.428 273.342 387.78 270.733 382.486 265.514C377.193 260.295 374.546 253.101 374.546 243.931V235.767C374.546 226.597 377.193 219.402 382.486 214.183C387.78 208.89 396.428 206.243 408.431 206.243H456.63V222.459H409.102Z" fill="black"/>
<path d="M435.332 222.459V206.243H446.179V192.6H465.75V206.243H488.675V222.459H465.75V249.634C465.75 252.467 466.346 254.443 467.539 255.561C468.732 256.605 470.67 257.127 473.354 257.127H488.675V273.342H470.894C461.649 273.342 455.014 271.404 450.988 267.527C447.037 263.576 445.061 257.611 445.061 249.634V222.459H435.332Z" fill="black"/>
<path d="M568.686 235.767V243.819C568.686 253.138 565.853 260.593 560.187 266.185C554.595 271.702 546.581 274.46 536.143 274.46H528.315C517.877 274.46 509.826 271.702 504.159 266.185C498.493 260.593 495.66 253.138 495.66 243.819V235.767C495.66 226.448 498.493 219.029 504.159 213.512C509.826 207.921 517.877 205.125 528.315 205.125H536.143C546.581 205.125 554.595 207.921 560.187 213.512C565.853 219.029 568.686 226.448 568.686 235.767ZM546.879 233.978C546.879 229.653 546.059 226.448 544.419 224.36C542.853 222.198 540.02 221.117 535.92 221.117H528.539C524.438 221.117 521.568 222.198 519.928 224.36C518.287 226.448 517.467 229.653 517.467 233.978V245.496C517.467 249.895 518.287 253.175 519.928 255.337C521.568 257.425 524.438 258.469 528.539 258.469H535.92C540.02 258.469 542.853 257.425 544.419 255.337C546.059 253.175 546.879 249.895 546.879 245.496V233.978Z" fill="black"/>
<path d="M579.261 231.182C579.261 227.976 579.746 224.882 580.715 221.9C581.684 218.918 583.212 216.271 585.3 213.96C587.387 211.649 590.071 209.785 593.352 208.368C596.707 206.952 600.695 206.243 605.318 206.243H625V222.459H610.126C606.324 222.459 603.752 223.13 602.41 224.472C601.143 225.814 600.509 228.125 600.509 231.405V273.342H579.261V231.182Z" fill="black"/>
<path fill-rule="evenodd" clip-rule="evenodd" d="M509.583 72.0625H578.468L464.834 186.548H395.949L509.583 72.0625ZM185.139 186.548H120.459L201.159 105.05C223.816 80.8398 253.052 72 289.59 72H495.859L453.034 115.152H286.963C259.16 115.098 248.197 123.228 232.733 138.757L185.139 186.548Z" fill="#FF0000"/>
<path fill-rule="evenodd" clip-rule="evenodd" d="M256.513 185.498H197.33L235.336 147.336C261.224 121.343 267.194 122.36 310.843 122.505H445.519L406.904 161.12L306.322 161.038C294.178 161.028 281.618 160.938 269.754 172.544L256.513 185.498Z" fill="#FF0000"/>
</svg>
