<svg viewBox="0 0 700 346" fill="none" xmlns="http://www.w3.org/2000/svg">
<path d="M116.018 133.532C114.045 131.559 114.045 128.36 116.018 126.387L156.387 86.0184C158.36 84.0454 161.559 84.0454 163.532 86.0184L170.141 92.6274C172.114 94.6004 172.114 97.7993 170.141 99.7723L129.772 140.141C127.799 142.114 124.6 142.114 122.627 140.141L116.018 133.532Z" fill="#060530"/>
<path d="M110.124 119.421C108.151 117.448 108.151 114.249 110.124 112.276L142.276 80.1237C144.249 78.1507 147.448 78.1507 149.421 80.1237L155.851 86.5541L136.203 106.203L115.568 124.865L110.124 119.421Z" fill="#060530"/>
<path d="M105.48 106.56C103.507 104.587 103.507 101.388 105.48 99.4151L129.415 75.4798C131.388 73.5067 134.587 73.5067 136.56 75.4798L141.919 80.8384L126.2 96.1999L109.709 110.789L105.48 106.56Z" fill="#060530"/>
<path d="M114.054 89.7696C112.673 88.3885 112.673 86.1492 114.054 84.7681L114.768 84.0537C116.149 82.6725 118.389 82.6725 119.77 84.0537L114.054 89.7696Z" fill="#060530"/>
<path d="M242.707 260.222C244.68 262.195 247.879 262.195 249.852 260.222L290.221 219.853C292.194 217.88 292.194 214.681 290.221 212.708L283.612 206.099C281.639 204.126 278.44 204.126 276.467 206.099L236.098 246.468C234.125 248.441 234.125 251.64 236.098 253.613L242.707 260.222Z" fill="#060530"/>
<path d="M256.819 266.117C258.792 268.09 261.991 268.09 263.964 266.117L296.116 233.965C298.089 231.992 298.089 228.793 296.116 226.82L289.685 220.389L270.037 240.038L251.374 260.672L256.819 266.117Z" fill="#060530"/>
<path d="M269.68 270.761C271.653 272.734 274.852 272.734 276.825 270.761L300.76 246.825C302.733 244.852 302.733 241.653 300.76 239.68L295.401 234.322L280.04 250.04L265.451 266.531L269.68 270.761Z" fill="#060530"/>
<path d="M286.47 262.187C287.851 263.568 290.091 263.568 291.472 262.187L292.186 261.472C293.567 260.091 293.567 257.852 292.186 256.471L286.47 262.187Z" fill="#060530"/>
<path d="M147.456 123.171L153.171 117.455L258.737 223.021L253.021 228.737L147.456 123.171Z" fill="#060530"/>
<path fill-rule="evenodd" clip-rule="evenodd" d="M112.143 246.694L165.998 198.264L181.732 185.059C183.172 183.736 185.313 181.833 187.894 179.539C200.903 167.975 225.093 146.474 227.036 139.121C227.688 136.649 227.923 134.57 228.14 132.651C228.627 128.346 229.022 124.848 233.83 119.533L233.832 119.515C240.824 111.773 278.356 81.814 285.84 77.766C285.84 77.766 287.461 78.7861 287.03 79.2233C285.413 80.8842 280.373 85.592 274.226 91.3333C263.384 101.46 249.099 114.803 244.09 120.309C240.5 124.248 242.839 125.078 245.869 122.612C250.306 119.01 260.477 109.165 269.944 100.001C280.185 90.0871 289.601 80.9717 290.042 81.4222C290.199 81.5858 291.315 82.813 291.315 82.813C286.068 88.1878 262.334 111.863 248.563 125.598C245.825 128.33 247.927 130.478 250.7 127.782C264.645 114.223 288.686 90.8624 294.143 85.7019C294.143 85.7019 295.344 86.8435 295.507 87.0067C295.947 87.4559 286.677 96.7381 276.6 106.829C267.156 116.284 257.004 126.45 253.469 130.722C250.571 134.213 252.819 135.018 255.502 132.696C260.814 128.116 274.763 113.64 285.303 102.702C291.153 96.6307 295.953 91.6498 297.642 90.056C298.092 89.6303 299.072 91.2775 299.072 91.2775C294.907 98.7063 264.351 135.78 256.499 142.649C251.115 147.37 247.618 147.705 243.318 148.116C241.398 148.3 239.318 148.498 236.838 149.11C229.437 150.937 207.234 175.153 195.542 187.905C193.324 190.324 191.485 192.33 190.196 193.693L176.775 209.247L127.563 262.786C124.298 266.337 118.303 266.993 115.306 263.93L111.262 259.816C107.905 256.392 108.136 250.299 112.143 246.694ZM253.267 142.866C253.329 142.986 253.28 143.145 253.157 143.22C251.275 144.377 249.739 145.139 248.088 145.586C246.438 146.033 244.69 146.161 242.385 146.071C242.249 146.066 242.153 145.946 242.17 145.804C242.187 145.662 242.311 145.551 242.447 145.556C244.726 145.646 246.421 145.517 248.004 145.088C249.586 144.66 251.073 143.926 252.935 142.783C253.057 142.708 253.206 142.745 253.267 142.866ZM232.987 123.049C233.062 122.927 233.221 122.878 233.341 122.94C233.462 123.001 233.5 123.15 233.425 123.272C232.281 125.134 231.548 126.62 231.119 128.203C230.69 129.786 230.562 131.48 230.651 133.76C230.656 133.895 230.545 134.019 230.403 134.036C230.261 134.053 230.141 133.957 230.136 133.822C230.046 131.517 230.174 129.769 230.621 128.118C231.068 126.468 231.83 124.932 232.987 123.049Z" fill="#060530"/>
<path d="M365.76 236.69V118.78H345.863V99.1096H467.843V146.477H448.399V118.78H389.5V165.356H440.259V185.027H389.5V236.69H409.623V256.361H345.863V236.69H365.76Z" fill="#060530"/>
<path d="M488.59 109.736C488.59 106.269 489.796 103.255 492.207 100.692C494.694 98.1299 497.822 96.8486 501.59 96.8486C505.133 96.8486 508.185 98.0922 510.747 100.579C513.31 103.066 514.591 106.119 514.591 109.736C514.591 113.354 513.31 116.444 510.747 119.006C508.185 121.493 505.133 122.737 501.59 122.737C497.973 122.737 494.883 121.456 492.32 118.893C489.833 116.331 488.59 113.278 488.59 109.736ZM491.642 237.256V166.035H474.572V146.929H513.121V237.256H529.966V256.361H474.572V237.256H491.642Z" fill="#060530"/>
<path d="M539.408 166.035V146.929H553.652V130.085L575.131 110.415V146.929H595.367V166.035H575.131V219.168C575.131 227.684 575.583 232.96 576.488 234.995C577.467 236.954 579.841 237.934 583.61 237.934C587.604 237.934 591.523 237.18 595.367 235.673V255.23C589.865 257.19 584.363 258.17 578.862 258.17C572.305 258.17 566.992 256.738 562.922 253.874C558.852 250.934 556.29 247.279 555.234 242.908C554.179 238.537 553.652 231 553.652 220.298V166.035H539.408Z" fill="#060530"/>
</svg>
