<svg viewBox="0 0 700 346" fill="none" xmlns="http://www.w3.org/2000/svg">
<g clip-path="url(#clip0_201_2)">
<path d="M23.8738 203.276V155.608H0V145.979H57.2972V155.608H33.4234V203.276H23.8738Z" fill="#1A1C21"/>
<path d="M62.9305 203.276V157.12H72.4005V203.276H62.9305ZM62.9305 151.55V142H72.4005V151.55H62.9305Z" fill="#1A1C21"/>
<path d="M90.7671 203.276C88.8042 203.276 87.0269 202.799 85.4353 201.844C83.8437 200.836 82.5439 199.536 81.5359 197.944C80.581 196.353 80.1035 194.575 80.1035 192.613V167.784C80.1035 165.821 80.581 164.043 81.5359 162.452C82.5439 160.86 83.8437 159.587 85.4353 158.632C87.0269 157.624 88.8042 157.12 90.7671 157.12H126.896V166.59H91.0855C90.661 166.59 90.2897 166.749 89.9714 167.068C89.7061 167.333 89.5735 167.678 89.5735 168.102V192.294C89.5735 192.719 89.7061 193.09 89.9714 193.408C90.2897 193.674 90.661 193.806 91.0855 193.806H126.976V203.276H90.7671Z" fill="#1A1C21"/>
<path d="M136.073 184.495V175.025H168.223V184.495H136.073Z" fill="#1A1C21"/>
<path d="M197.954 203.276V155.608H174.08V145.979H231.377V155.608H207.503V203.276H197.954Z" fill="#1A1C21"/>
<path d="M247.674 203.276C245.711 203.276 243.907 202.799 242.263 201.844C240.671 200.836 239.398 199.536 238.443 197.944C237.488 196.353 237.01 194.575 237.01 192.613V175.423H274.413V168.102C274.413 167.678 274.254 167.333 273.935 167.068C273.67 166.749 273.325 166.59 272.901 166.59H237.01V157.12H273.219C275.235 157.12 277.039 157.624 278.631 158.632C280.222 159.587 281.495 160.86 282.45 162.452C283.405 164.043 283.883 165.821 283.883 167.784V203.276H247.674ZM247.992 193.806H274.413V184.098H246.48V192.294C246.48 192.719 246.613 193.09 246.878 193.408C247.197 193.674 247.568 193.806 247.992 193.806Z" fill="#1A1C21"/>
<path d="M301.062 203.276C299.099 203.276 297.322 202.799 295.73 201.844C294.139 200.836 292.839 199.536 291.831 197.944C290.876 196.353 290.398 194.575 290.398 192.613V167.784C290.398 165.821 290.876 164.043 291.831 162.452C292.839 160.86 294.139 159.587 295.73 158.632C297.322 157.624 299.099 157.12 301.062 157.12H337.191V166.59H301.38C300.956 166.59 300.584 166.749 300.266 167.068C300.001 167.333 299.868 167.678 299.868 168.102V192.294C299.868 192.719 300.001 193.09 300.266 193.408C300.584 193.674 300.956 193.806 301.38 193.806H337.271V203.276H301.062Z" fill="#1A1C21"/>
<path d="M346.367 184.495V175.025H378.518V184.495H346.367Z" fill="#1A1C21"/>
<path d="M397.665 203.276C395.702 203.276 393.898 202.799 392.253 201.844C390.661 200.889 389.388 199.589 388.433 197.944C387.478 196.3 387.001 194.496 387.001 192.533V188.713H396.55V192.215C396.55 192.639 396.683 192.984 396.948 193.249C397.214 193.514 397.558 193.647 397.983 193.647H433.157C433.581 193.647 433.926 193.514 434.191 193.249C434.51 192.984 434.669 192.639 434.669 192.215V180.835C434.669 180.463 434.51 180.145 434.191 179.88C433.926 179.561 433.581 179.402 433.157 179.402H397.665C395.702 179.402 393.898 178.925 392.253 177.97C390.661 177.015 389.388 175.742 388.433 174.15C387.478 172.505 387.001 170.702 387.001 168.739V156.722C387.001 154.759 387.478 152.955 388.433 151.311C389.388 149.666 390.661 148.366 392.253 147.411C393.898 146.456 395.702 145.979 397.665 145.979H433.555C435.518 145.979 437.295 146.456 438.887 147.411C440.531 148.366 441.831 149.666 442.786 151.311C443.794 152.955 444.298 154.759 444.298 156.722V160.542H434.669V157.041C434.669 156.616 434.51 156.271 434.191 156.006C433.926 155.741 433.581 155.608 433.157 155.608H397.983C397.558 155.608 397.214 155.741 396.948 156.006C396.683 156.271 396.55 156.616 396.55 157.041V168.42C396.55 168.792 396.683 169.137 396.948 169.455C397.214 169.72 397.558 169.853 397.983 169.853H433.555C435.518 169.853 437.295 170.33 438.887 171.285C440.531 172.24 441.831 173.54 442.786 175.185C443.794 176.776 444.298 178.553 444.298 180.516V192.533C444.298 194.496 443.794 196.3 442.786 197.944C441.831 199.589 440.531 200.889 438.887 201.844C437.295 202.799 435.518 203.276 433.555 203.276H397.665Z" fill="#1A1C21"/>
<path d="M452.908 203.276V146.059H499.462C501.425 146.059 503.202 146.563 504.794 147.571C506.439 148.526 507.738 149.825 508.693 151.47C509.701 153.062 510.205 154.839 510.205 156.802V172.558C510.205 174.468 509.701 176.246 508.693 177.89C507.738 179.535 506.439 180.835 504.794 181.79C503.202 182.745 501.425 183.222 499.462 183.222L462.458 183.302V203.276H452.908ZM463.89 173.593H499.144C499.515 173.593 499.833 173.46 500.099 173.195C500.417 172.93 500.576 172.585 500.576 172.161V157.041C500.576 156.669 500.417 156.351 500.099 156.086C499.833 155.767 499.515 155.608 499.144 155.608H463.89C463.519 155.608 463.174 155.767 462.856 156.086C462.59 156.351 462.458 156.669 462.458 157.041V172.161C462.458 172.585 462.59 172.93 462.856 173.195C463.174 173.46 463.519 173.593 463.89 173.593Z" fill="#1A1C21"/>
<path d="M516.404 203.276V156.722C516.404 154.759 516.882 152.955 517.837 151.311C518.792 149.666 520.092 148.366 521.736 147.411C523.381 146.456 525.185 145.979 527.148 145.979H562.958C564.921 145.979 566.699 146.456 568.29 147.411C569.935 148.366 571.235 149.666 572.19 151.311C573.198 152.955 573.702 154.759 573.702 156.722V203.276H564.072V183.62H525.954V203.276H516.404ZM525.954 174.071H564.072V157.041C564.072 156.616 563.913 156.271 563.595 156.006C563.33 155.741 563.011 155.608 562.64 155.608H527.386C527.015 155.608 526.67 155.741 526.352 156.006C526.087 156.271 525.954 156.616 525.954 157.041V174.071Z" fill="#1A1C21"/>
<path d="M593.512 203.276C591.549 203.276 589.745 202.799 588.101 201.844C586.456 200.889 585.156 199.589 584.201 197.944C583.246 196.3 582.769 194.496 582.769 192.533V156.722C582.769 154.759 583.246 152.955 584.201 151.311C585.156 149.666 586.456 148.366 588.101 147.411C589.745 146.456 591.549 145.979 593.512 145.979H639.907V155.608H595.183C594.334 155.608 593.645 155.873 593.114 156.404C592.583 156.881 592.318 157.545 592.318 158.393V190.862C592.318 191.711 592.583 192.4 593.114 192.931C593.645 193.408 594.334 193.647 595.183 193.647H639.907V203.276H593.512Z" fill="#1A1C21"/>
<path d="M648.363 203.276V145.979H700.965V155.608H657.992V169.853H692.609V179.402H657.992V193.647H700.965V203.276H648.363Z" fill="#1A1C21"/>
</g>
<defs>
<clipPath id="clip0_201_2">
<rect width="700" height="346" fill="white"/>
</clipPath>
</defs>
</svg>
