<svg width="700" height="346" viewBox="0 0 700 346" fill="none" xmlns="http://www.w3.org/2000/svg">
<g clip-path="url(#clip0_126_33)">
<path d="M181.056 232.664L154.851 136.347L141.983 135.177V119.111H193.222V135.177L180.588 136.971L194.782 195.073H195.25L197.122 187.664L219.349 119.111H238.222L261.619 190.862L263.257 195.775H263.725L265.051 190.862L278.309 136.971L265.285 135.177V119.111H315.51V135.177L303.422 136.347L276.048 232.664H251.637L232.061 173.938L229.644 165.827H229.176L226.134 174.406L206.247 232.664H181.056Z" fill="black"/>
<path d="M361.914 234.302C353.231 234.302 345.796 232.508 339.609 228.921C333.474 225.281 328.769 220.238 325.493 213.791C322.269 207.291 320.658 199.778 320.658 191.251V189.692C320.658 181.269 322.269 173.834 325.493 167.387C328.769 160.939 333.474 155.896 339.609 152.257C345.744 148.565 353.127 146.719 361.758 146.719C370.441 146.719 377.824 148.539 383.907 152.179C390.043 155.818 394.722 160.861 397.946 167.309C401.221 173.756 402.859 181.217 402.859 189.692V191.251C402.859 199.726 401.221 207.213 397.946 213.713C394.722 220.16 390.043 225.203 383.907 228.843C377.824 232.482 370.493 234.302 361.914 234.302ZM361.914 213.479C365.242 213.479 367.893 212.595 369.869 210.827C371.897 209.007 373.353 206.434 374.237 203.106C375.173 199.778 375.64 195.827 375.64 191.251V189.692C375.64 185.272 375.173 181.425 374.237 178.149C373.353 174.822 371.897 172.248 369.869 170.428C367.841 168.556 365.138 167.621 361.758 167.621C358.431 167.621 355.753 168.556 353.725 170.428C351.698 172.248 350.242 174.822 349.358 178.149C348.474 181.425 348.032 185.272 348.032 189.692V191.251C348.032 195.879 348.474 199.856 349.358 203.184C350.242 206.512 351.698 209.059 353.725 210.827C355.753 212.595 358.483 213.479 361.914 213.479Z" fill="black"/>
<path d="M414.791 232.664V216.676L424.618 214.18V166.841L412.92 164.345V148.279H450.433L451.057 158.574L451.213 160.679C453.084 155.896 455.398 152.387 458.154 150.151C460.961 147.863 464.445 146.719 468.604 146.719C469.748 146.719 471.1 146.823 472.66 147.031C474.22 147.187 475.805 147.499 477.417 147.967L474.688 173.08L462.989 172.534C460.285 172.43 458.154 172.742 456.594 173.47C455.086 174.146 453.552 175.29 451.992 176.901V214.18L461.819 216.676V232.664H414.791Z" fill="black"/>
<path d="M513.058 234.302C506.455 234.302 500.762 232.56 495.979 229.077C491.247 225.593 487.608 220.706 485.06 214.414C482.564 208.071 481.317 200.688 481.317 192.265V190.628C481.317 181.841 482.59 174.172 485.138 167.621C487.686 161.017 491.299 155.896 495.979 152.257C500.71 148.565 506.299 146.719 512.747 146.719C517.218 146.719 521.065 147.655 524.289 149.527C527.565 151.347 530.424 153.92 532.868 157.248V129.562L521.013 127.066V111H560.242V214.18L570.069 216.676V232.664H536.533L534.506 222.213C531.958 226.165 528.942 229.181 525.459 231.26C521.975 233.288 517.842 234.302 513.058 234.302ZM521.559 213.323C523.847 213.323 525.979 212.881 527.955 211.997C529.93 211.113 531.568 209.787 532.868 208.019V174.25C531.568 172.118 529.956 170.506 528.032 169.414C526.161 168.271 524.055 167.699 521.715 167.699C518.596 167.699 516.074 168.66 514.15 170.584C512.227 172.508 510.823 175.186 509.939 178.617C509.107 182.049 508.691 186.052 508.691 190.628V192.265C508.691 198.972 509.627 204.172 511.499 207.863C513.37 211.503 516.724 213.323 521.559 213.323Z" fill="black"/>
<path d="M573.657 232.664V216.676L583.639 214.18V129.562L571.785 127.066V111H611.014V214.18L620.918 216.676V232.664H573.657Z" fill="black"/>
<path d="M666.308 234.302C658.041 234.302 650.814 232.534 644.627 228.999C638.492 225.411 633.709 220.524 630.277 214.336C626.898 208.149 625.208 201.156 625.208 193.357V190.472C625.208 181.893 626.716 174.302 629.731 167.699C632.747 161.095 637.166 155.948 642.989 152.257C648.813 148.513 655.962 146.667 664.437 146.719C672.08 146.719 678.527 148.201 683.778 151.165C689.081 154.076 693.111 158.392 695.867 164.111C698.622 169.778 700 176.771 700 185.09V199.206H653.596L653.518 199.752C653.934 202.404 654.818 204.77 656.17 206.849C657.574 208.877 659.497 210.489 661.941 211.685C664.385 212.881 667.4 213.479 670.988 213.479C674.523 213.479 677.981 213.089 681.36 212.309C684.792 211.477 688.406 210.177 692.201 208.409L698.44 224.943C694.645 227.647 690.017 229.882 684.558 231.65C679.099 233.418 673.016 234.302 666.308 234.302ZM653.596 182.283H675.043V180.255C675.043 177.239 674.731 174.718 674.107 172.69C673.535 170.662 672.522 169.128 671.066 168.089C669.61 167.049 667.608 166.529 665.061 166.529C662.305 166.529 660.095 167.205 658.431 168.556C656.82 169.856 655.624 171.676 654.844 174.016C654.116 176.303 653.596 178.929 653.284 181.893L653.596 182.283Z" fill="black"/>
<rect x="46.0424" y="114.309" width="41.2299" height="113.339" fill="#5FA059" stroke="black" stroke-width="10.3259"/>
<rect x="87.2477" y="170.966" width="41.2299" height="56.6819" fill="#6D7173" stroke="black" stroke-width="10.3259"/>
<rect x="4.83706" y="155.514" width="41.2299" height="72.1339" fill="#C2AB4E" stroke="black" stroke-width="10.3259"/>
</g>
<defs>
<clipPath id="clip0_126_33">
<rect width="700" height="346" fill="white"/>
</clipPath>
</defs>
</svg>
