<svg viewBox="0 0 1427 214" fill="none" xmlns="http://www.w3.org/2000/svg">
<path d="M35.6 37C29.6 37 24.6667 35.2667 20.8 31.8C17.0667 28.2 15.2 23.8 15.2 18.6C15.2 13.2667 17.0667 8.86667 20.8 5.4C24.6667 1.8 29.6 0 35.6 0C41.4667 0 46.2667 1.8 50 5.4C53.8667 8.86667 55.8 13.2667 55.8 18.6C55.8 23.8 53.8667 28.2 50 31.8C46.2667 35.2667 41.4667 37 35.6 37ZM52.8 174.6C52.8 188.333 49.3333 198.2 42.4 204.2C35.4667 210.333 25.8 213.4 13.4 213.4H0V184.4H8.2C11.9333 184.4 14.6 183.667 16.2 182.2C17.8 180.733 18.6 178.333 18.6 175V48.6H52.8V174.6Z" fill="#02674F"/>
<path d="M70.5891 104.2C70.5891 92.7333 72.7224 82.6667 76.9891 74C81.3891 65.3333 87.3224 58.6667 94.7891 54C102.256 49.3333 110.589 47 119.789 47C127.656 47 134.522 48.6 140.389 51.8C146.389 55 150.989 59.2 154.189 64.4V48.6H188.389V160.2H154.189V144.4C150.856 149.6 146.189 153.8 140.189 157C134.322 160.2 127.456 161.8 119.589 161.8C110.522 161.8 102.256 159.467 94.7891 154.8C87.3224 150 81.3891 143.267 76.9891 134.6C72.7224 125.8 70.5891 115.667 70.5891 104.2ZM154.189 104.4C154.189 95.8667 151.789 89.1333 146.989 84.2C142.322 79.2667 136.589 76.8 129.789 76.8C122.989 76.8 117.189 79.2667 112.389 84.2C107.722 89 105.389 95.6667 105.389 104.2C105.389 112.733 107.722 119.533 112.389 124.6C117.189 129.533 122.989 132 129.789 132C136.589 132 142.322 129.533 146.989 124.6C151.789 119.667 154.189 112.933 154.189 104.4Z" fill="#02674F"/>
<path d="M355.531 47.4C369.398 47.4 380.398 51.6 388.531 60C396.798 68.4 400.931 80.0667 400.931 95V160.2H366.931V99.6C366.931 92.4 364.998 86.8667 361.131 83C357.398 79 352.198 77 345.531 77C338.865 77 333.598 79 329.731 83C325.998 86.8667 324.131 92.4 324.131 99.6V160.2H290.131V99.6C290.131 92.4 288.198 86.8667 284.331 83C280.598 79 275.398 77 268.731 77C262.065 77 256.798 79 252.931 83C249.198 86.8667 247.331 92.4 247.331 99.6V160.2H213.131V48.6H247.331V62.6C250.798 57.9333 255.331 54.2667 260.931 51.6C266.531 48.8 272.865 47.4 279.931 47.4C288.331 47.4 295.798 49.2 302.331 52.8C308.998 56.4 314.198 61.5333 317.931 68.2C321.798 62.0667 327.065 57.0667 333.731 53.2C340.398 49.3333 347.665 47.4 355.531 47.4Z" fill="#02674F"/>
<path d="M530.05 102.6C530.05 105.8 529.85 109.133 529.45 112.6H452.05C452.583 119.533 454.783 124.867 458.65 128.6C462.65 132.2 467.517 134 473.25 134C481.783 134 487.717 130.4 491.05 123.2H527.45C525.583 130.533 522.183 137.133 517.25 143C512.45 148.867 506.383 153.467 499.05 156.8C491.717 160.133 483.517 161.8 474.45 161.8C463.517 161.8 453.783 159.467 445.25 154.8C436.717 150.133 430.05 143.467 425.25 134.8C420.45 126.133 418.05 116 418.05 104.4C418.05 92.8 420.383 82.6667 425.05 74C429.85 65.3333 436.517 58.6667 445.05 54C453.583 49.3333 463.383 47 474.45 47C485.25 47 494.85 49.2667 503.25 53.8C511.65 58.3333 518.183 64.8 522.85 73.2C527.65 81.6 530.05 91.4 530.05 102.6ZM495.05 93.6C495.05 87.7333 493.05 83.0667 489.05 79.6C485.05 76.1333 480.05 74.4 474.05 74.4C468.317 74.4 463.45 76.0667 459.45 79.4C455.583 82.7333 453.183 87.4667 452.25 93.6H495.05Z" fill="#02674F"/>
<path d="M593.492 161.8C583.759 161.8 575.092 160.133 567.492 156.8C559.892 153.467 553.892 148.933 549.492 143.2C545.092 137.333 542.625 130.8 542.092 123.6H575.892C576.292 127.467 578.092 130.6 581.292 133C584.492 135.4 588.425 136.6 593.092 136.6C597.359 136.6 600.626 135.8 602.892 134.2C605.292 132.467 606.492 130.267 606.492 127.6C606.492 124.4 604.826 122.067 601.492 120.6C598.159 119 592.759 117.267 585.292 115.4C577.292 113.533 570.626 111.6 565.292 109.6C559.959 107.467 555.359 104.2 551.492 99.8C547.626 95.2667 545.692 89.2 545.692 81.6C545.692 75.2 547.426 69.4 550.892 64.2C554.492 58.8667 559.692 54.6667 566.492 51.6C573.426 48.5333 581.625 47 591.092 47C605.092 47 616.092 50.4667 624.092 57.4C632.226 64.3333 636.892 73.5333 638.092 85H606.492C605.959 81.1333 604.226 78.0667 601.292 75.8C598.492 73.5333 594.759 72.4 590.092 72.4C586.092 72.4 583.026 73.2 580.892 74.8C578.759 76.2667 577.692 78.3333 577.692 81C577.692 84.2 579.359 86.6 582.692 88.2C586.159 89.8 591.492 91.4 598.692 93C606.959 95.1333 613.692 97.2667 618.892 99.4C624.092 101.4 628.626 104.733 632.492 109.4C636.492 113.933 638.559 120.067 638.692 127.8C638.692 134.333 636.826 140.2 633.092 145.4C629.492 150.467 624.226 154.467 617.292 157.4C610.492 160.333 602.559 161.8 593.492 161.8Z" fill="#02674F"/>
<path d="M781.216 19.8V160.2H747.016V102.4H693.816V160.2H659.616V19.8H693.816V74.8H747.016V19.8H781.216Z" fill="#02674F"/>
<path d="M916.105 48.6V160.2H881.905V145C878.438 149.933 873.705 153.933 867.705 157C861.838 159.933 855.305 161.4 848.105 161.4C839.571 161.4 832.038 159.533 825.505 155.8C818.971 151.933 813.905 146.4 810.305 139.2C806.705 132 804.905 123.533 804.905 113.8V48.6H838.905V109.2C838.905 116.667 840.838 122.467 844.705 126.6C848.571 130.733 853.771 132.8 860.305 132.8C866.971 132.8 872.238 130.733 876.105 126.6C879.971 122.467 881.905 116.667 881.905 109.2V48.6H916.105Z" fill="#02674F"/>
<path d="M933.87 104.2C933.87 92.7333 936.004 82.6667 940.27 74C944.67 65.3333 950.604 58.6667 958.07 54C965.537 49.3333 973.87 47 983.07 47C990.404 47 997.07 48.5333 1003.07 51.6C1009.2 54.6667 1014 58.8 1017.47 64V12.2H1051.67V160.2H1017.47V144.2C1014.27 149.533 1009.67 153.8 1003.67 157C997.804 160.2 990.937 161.8 983.07 161.8C973.87 161.8 965.537 159.467 958.07 154.8C950.604 150 944.67 143.267 940.27 134.6C936.004 125.8 933.87 115.667 933.87 104.2ZM1017.47 104.4C1017.47 95.8667 1015.07 89.1333 1010.27 84.2C1005.6 79.2667 999.87 76.8 993.07 76.8C986.27 76.8 980.47 79.2667 975.67 84.2C971.004 89 968.67 95.6667 968.67 104.2C968.67 112.733 971.004 119.533 975.67 124.6C980.47 129.533 986.27 132 993.07 132C999.87 132 1005.6 129.533 1010.27 124.6C1015.07 119.667 1017.47 112.933 1017.47 104.4Z" fill="#02674F"/>
<path d="M1121.81 161.8C1112.08 161.8 1103.41 160.133 1095.81 156.8C1088.21 153.467 1082.21 148.933 1077.81 143.2C1073.41 137.333 1070.95 130.8 1070.41 123.6H1104.21C1104.61 127.467 1106.41 130.6 1109.61 133C1112.81 135.4 1116.75 136.6 1121.41 136.6C1125.68 136.6 1128.95 135.8 1131.21 134.2C1133.61 132.467 1134.81 130.267 1134.81 127.6C1134.81 124.4 1133.15 122.067 1129.81 120.6C1126.48 119 1121.08 117.267 1113.61 115.4C1105.61 113.533 1098.95 111.6 1093.61 109.6C1088.28 107.467 1083.68 104.2 1079.81 99.8C1075.95 95.2667 1074.01 89.2 1074.01 81.6C1074.01 75.2 1075.75 69.4 1079.21 64.2C1082.81 58.8667 1088.01 54.6667 1094.81 51.6C1101.75 48.5333 1109.95 47 1119.41 47C1133.41 47 1144.41 50.4667 1152.41 57.4C1160.55 64.3333 1165.21 73.5333 1166.41 85H1134.81C1134.28 81.1333 1132.55 78.0667 1129.61 75.8C1126.81 73.5333 1123.08 72.4 1118.41 72.4C1114.41 72.4 1111.35 73.2 1109.21 74.8C1107.08 76.2667 1106.01 78.3333 1106.01 81C1106.01 84.2 1107.68 86.6 1111.01 88.2C1114.48 89.8 1119.81 91.4 1127.01 93C1135.28 95.1333 1142.01 97.2667 1147.21 99.4C1152.41 101.4 1156.95 104.733 1160.81 109.4C1164.81 113.933 1166.88 120.067 1167.01 127.8C1167.01 134.333 1165.15 140.2 1161.41 145.4C1157.81 150.467 1152.55 154.467 1145.61 157.4C1138.81 160.333 1130.88 161.8 1121.81 161.8Z" fill="#02674F"/>
<path d="M1238.74 161.8C1227.8 161.8 1217.94 159.467 1209.14 154.8C1200.47 150.133 1193.6 143.467 1188.54 134.8C1183.6 126.133 1181.14 116 1181.14 104.4C1181.14 92.9333 1183.67 82.8667 1188.74 74.2C1193.8 65.4 1200.74 58.6667 1209.54 54C1218.34 49.3333 1228.2 47 1239.14 47C1250.07 47 1259.94 49.3333 1268.74 54C1277.54 58.6667 1284.47 65.4 1289.54 74.2C1294.6 82.8667 1297.14 92.9333 1297.14 104.4C1297.14 115.867 1294.54 126 1289.34 134.8C1284.27 143.467 1277.27 150.133 1268.34 154.8C1259.54 159.467 1249.67 161.8 1238.74 161.8ZM1238.74 132.2C1245.27 132.2 1250.8 129.8 1255.34 125C1260 120.2 1262.34 113.333 1262.34 104.4C1262.34 95.4667 1260.07 88.6 1255.54 83.8C1251.14 79 1245.67 76.6 1239.14 76.6C1232.47 76.6 1226.94 79 1222.54 83.8C1218.14 88.4667 1215.94 95.3333 1215.94 104.4C1215.94 113.333 1218.07 120.2 1222.34 125C1226.74 129.8 1232.2 132.2 1238.74 132.2Z" fill="#02674F"/>
<path d="M1383.28 47.4C1396.35 47.4 1406.75 51.6667 1414.48 60.2C1422.35 68.6 1426.28 80.2 1426.28 95V160.2H1392.28V99.6C1392.28 92.1333 1390.35 86.3333 1386.48 82.2C1382.61 78.0667 1377.41 76 1370.88 76C1364.35 76 1359.15 78.0667 1355.28 82.2C1351.41 86.3333 1349.48 92.1333 1349.48 99.6V160.2H1315.28V48.6H1349.48V63.4C1352.95 58.4667 1357.61 54.6 1363.48 51.8C1369.35 48.8667 1375.95 47.4 1383.28 47.4Z" fill="#02674F"/>
</svg>
