<svg viewBox="0 0 1428 215" fill="none" xmlns="http://www.w3.org/2000/svg">
<path d="M36.4 37.7998C30.4 37.7998 25.4667 36.0665 21.6 32.5998C17.8667 28.9998 16 24.5998 16 19.3998C16 14.0665 17.8667 9.66648 21.6 6.19981C25.4667 2.59981 30.4 0.799805 36.4 0.799805C42.2667 0.799805 47.0667 2.59981 50.8001 6.19981C54.6667 9.66648 56.6001 14.0665 56.6001 19.3998C56.6001 24.5998 54.6667 28.9998 50.8001 32.5998C47.0667 36.0665 42.2667 37.7998 36.4 37.7998ZM53.6001 175.4C53.6001 189.133 50.1334 199 43.2001 205C36.2667 211.133 26.6 214.2 14.2 214.2H0.800049V185.2H9.00005C12.7334 185.2 15.4 184.466 17 183C18.6 181.533 19.4 179.133 19.4 175.8V49.3998H53.6001V175.4Z" fill="#CCF381"/>
<path d="M71.3891 105C71.3891 93.5331 73.5224 83.4665 77.7891 74.7998C82.1891 66.1331 88.1224 59.4665 95.5891 54.7998C103.056 50.1331 111.389 47.7998 120.589 47.7998C128.456 47.7998 135.322 49.3998 141.189 52.5998C147.189 55.7998 151.789 59.9998 154.989 65.1998V49.3998H189.189V161H154.989V145.2C151.656 150.4 146.989 154.6 140.989 157.8C135.122 161 128.256 162.6 120.389 162.6C111.322 162.6 103.056 160.266 95.5891 155.6C88.1224 150.8 82.1891 144.066 77.7891 135.4C73.5224 126.6 71.3891 116.466 71.3891 105ZM154.989 105.2C154.989 96.6665 152.589 89.9331 147.789 84.9998C143.122 80.0665 137.389 77.5998 130.589 77.5998C123.789 77.5998 117.989 80.0665 113.189 84.9998C108.522 89.7998 106.189 96.4665 106.189 105C106.189 113.533 108.522 120.333 113.189 125.4C117.989 130.333 123.789 132.8 130.589 132.8C137.389 132.8 143.122 130.333 147.789 125.4C152.589 120.466 154.989 113.733 154.989 105.2Z" fill="#CCF381"/>
<path d="M356.331 48.1998C370.198 48.1998 381.198 52.3998 389.331 60.7998C397.598 69.1998 401.731 80.8665 401.731 95.7998V161H367.731V100.4C367.731 93.1998 365.798 87.6665 361.931 83.7998C358.198 79.7998 352.998 77.7998 346.331 77.7998C339.665 77.7998 334.398 79.7998 330.531 83.7998C326.798 87.6665 324.931 93.1998 324.931 100.4V161H290.931V100.4C290.931 93.1998 288.998 87.6665 285.131 83.7998C281.398 79.7998 276.198 77.7998 269.531 77.7998C262.865 77.7998 257.598 79.7998 253.731 83.7998C249.998 87.6665 248.131 93.1998 248.131 100.4V161H213.931V49.3998H248.131V63.3998C251.598 58.7331 256.131 55.0665 261.731 52.3998C267.331 49.5998 273.665 48.1998 280.731 48.1998C289.131 48.1998 296.598 49.9998 303.131 53.5998C309.798 57.1998 314.998 62.3331 318.731 68.9998C322.598 62.8665 327.865 57.8665 334.531 53.9998C341.198 50.1331 348.465 48.1998 356.331 48.1998Z" fill="#CCF381"/>
<path d="M530.85 103.4C530.85 106.6 530.65 109.933 530.25 113.4H452.85C453.383 120.333 455.583 125.666 459.45 129.4C463.45 133 468.317 134.8 474.05 134.8C482.583 134.8 488.517 131.2 491.85 124H528.25C526.383 131.333 522.983 137.933 518.05 143.8C513.25 149.666 507.183 154.266 499.85 157.6C492.517 160.933 484.317 162.6 475.25 162.6C464.317 162.6 454.583 160.266 446.05 155.6C437.517 150.933 430.85 144.266 426.05 135.6C421.25 126.933 418.85 116.8 418.85 105.2C418.85 93.5998 421.183 83.4665 425.85 74.7998C430.65 66.1331 437.317 59.4665 445.85 54.7998C454.383 50.1331 464.183 47.7998 475.25 47.7998C486.05 47.7998 495.65 50.0665 504.05 54.5998C512.45 59.1331 518.983 65.5998 523.65 73.9998C528.45 82.3998 530.85 92.1998 530.85 103.4ZM495.85 94.3998C495.85 88.5332 493.85 83.8665 489.85 80.3998C485.85 76.9331 480.85 75.1998 474.85 75.1998C469.117 75.1998 464.25 76.8665 460.25 80.1998C456.383 83.5331 453.983 88.2665 453.05 94.3998H495.85Z" fill="#CCF381"/>
<path d="M594.292 162.6C584.559 162.6 575.892 160.933 568.292 157.6C560.692 154.266 554.692 149.733 550.292 144C545.892 138.133 543.426 131.6 542.892 124.4H576.692C577.092 128.266 578.892 131.4 582.092 133.8C585.292 136.2 589.226 137.4 593.892 137.4C598.159 137.4 601.426 136.6 603.692 135C606.092 133.266 607.292 131.066 607.292 128.4C607.292 125.2 605.626 122.866 602.292 121.4C598.959 119.8 593.559 118.066 586.092 116.2C578.092 114.333 571.426 112.4 566.092 110.4C560.759 108.266 556.159 105 552.292 100.6C548.426 96.0665 546.492 89.9998 546.492 82.3998C546.492 75.9998 548.226 70.1998 551.692 64.9998C555.292 59.6665 560.492 55.4665 567.292 52.3998C574.226 49.3331 582.426 47.7998 591.892 47.7998C605.892 47.7998 616.892 51.2665 624.892 58.1998C633.026 65.1331 637.692 74.3331 638.892 85.7998H607.292C606.759 81.9331 605.026 78.8665 602.092 76.5998C599.292 74.3332 595.559 73.1998 590.892 73.1998C586.892 73.1998 583.826 73.9998 581.692 75.5998C579.559 77.0665 578.492 79.1331 578.492 81.7998C578.492 84.9998 580.159 87.3998 583.492 88.9998C586.959 90.5998 592.292 92.1998 599.492 93.7998C607.759 95.9331 614.492 98.0665 619.692 100.2C624.892 102.2 629.426 105.533 633.292 110.2C637.292 114.733 639.359 120.866 639.492 128.6C639.492 135.133 637.626 141 633.892 146.2C630.292 151.266 625.026 155.266 618.092 158.2C611.292 161.133 603.359 162.6 594.292 162.6Z" fill="#CCF381"/>
<path d="M782.016 20.5998V161H747.816V103.2H694.616V161H660.416V20.5998H694.616V75.5998H747.816V20.5998H782.016Z" fill="#CCF381"/>
<path d="M916.905 49.3998V161H882.705V145.8C879.238 150.733 874.505 154.733 868.505 157.8C862.638 160.733 856.105 162.2 848.905 162.2C840.371 162.2 832.838 160.333 826.305 156.6C819.771 152.733 814.705 147.2 811.105 140C807.505 132.8 805.705 124.333 805.705 114.6V49.3998H839.705V110C839.705 117.466 841.638 123.266 845.505 127.4C849.371 131.533 854.571 133.6 861.105 133.6C867.771 133.6 873.038 131.533 876.905 127.4C880.771 123.266 882.705 117.466 882.705 110V49.3998H916.905Z" fill="#CCF381"/>
<path d="M934.67 105C934.67 93.5331 936.804 83.4665 941.07 74.7998C945.47 66.1331 951.404 59.4665 958.87 54.7998C966.337 50.1331 974.67 47.7998 983.87 47.7998C991.204 47.7998 997.87 49.3331 1003.87 52.3998C1010 55.4665 1014.8 59.5998 1018.27 64.7998V12.9998H1052.47V161H1018.27V145C1015.07 150.333 1010.47 154.6 1004.47 157.8C998.604 161 991.737 162.6 983.87 162.6C974.67 162.6 966.337 160.266 958.87 155.6C951.404 150.8 945.47 144.066 941.07 135.4C936.804 126.6 934.67 116.466 934.67 105ZM1018.27 105.2C1018.27 96.6665 1015.87 89.9331 1011.07 84.9998C1006.4 80.0665 1000.67 77.5998 993.87 77.5998C987.07 77.5998 981.27 80.0665 976.47 84.9998C971.804 89.7998 969.47 96.4665 969.47 105C969.47 113.533 971.804 120.333 976.47 125.4C981.27 130.333 987.07 132.8 993.87 132.8C1000.67 132.8 1006.4 130.333 1011.07 125.4C1015.87 120.466 1018.27 113.733 1018.27 105.2Z" fill="#CCF381"/>
<path d="M1122.61 162.6C1112.88 162.6 1104.21 160.933 1096.61 157.6C1089.01 154.266 1083.01 149.733 1078.61 144C1074.21 138.133 1071.75 131.6 1071.21 124.4H1105.01C1105.41 128.266 1107.21 131.4 1110.41 133.8C1113.61 136.2 1117.55 137.4 1122.21 137.4C1126.48 137.4 1129.75 136.6 1132.01 135C1134.41 133.266 1135.61 131.066 1135.61 128.4C1135.61 125.2 1133.95 122.866 1130.61 121.4C1127.28 119.8 1121.88 118.066 1114.41 116.2C1106.41 114.333 1099.75 112.4 1094.41 110.4C1089.08 108.266 1084.48 105 1080.61 100.6C1076.75 96.0665 1074.81 89.9998 1074.81 82.3998C1074.81 75.9998 1076.55 70.1998 1080.01 64.9998C1083.61 59.6665 1088.81 55.4665 1095.61 52.3998C1102.55 49.3331 1110.75 47.7998 1120.21 47.7998C1134.21 47.7998 1145.21 51.2665 1153.21 58.1998C1161.35 65.1331 1166.01 74.3331 1167.21 85.7998H1135.61C1135.08 81.9331 1133.35 78.8665 1130.41 76.5998C1127.61 74.3332 1123.88 73.1998 1119.21 73.1998C1115.21 73.1998 1112.15 73.9998 1110.01 75.5998C1107.88 77.0665 1106.81 79.1331 1106.81 81.7998C1106.81 84.9998 1108.48 87.3998 1111.81 88.9998C1115.28 90.5998 1120.61 92.1998 1127.81 93.7998C1136.08 95.9331 1142.81 98.0665 1148.01 100.2C1153.21 102.2 1157.75 105.533 1161.61 110.2C1165.61 114.733 1167.68 120.866 1167.81 128.6C1167.81 135.133 1165.95 141 1162.21 146.2C1158.61 151.266 1153.35 155.266 1146.41 158.2C1139.61 161.133 1131.68 162.6 1122.61 162.6Z" fill="#CCF381"/>
<path d="M1239.54 162.6C1228.6 162.6 1218.74 160.266 1209.94 155.6C1201.27 150.933 1194.4 144.266 1189.34 135.6C1184.4 126.933 1181.94 116.8 1181.94 105.2C1181.94 93.7331 1184.47 83.6665 1189.54 74.9998C1194.6 66.1998 1201.54 59.4665 1210.34 54.7998C1219.14 50.1331 1229 47.7998 1239.94 47.7998C1250.87 47.7998 1260.74 50.1331 1269.54 54.7998C1278.34 59.4665 1285.27 66.1998 1290.34 74.9998C1295.4 83.6665 1297.94 93.7331 1297.94 105.2C1297.94 116.666 1295.34 126.8 1290.14 135.6C1285.07 144.266 1278.07 150.933 1269.14 155.6C1260.34 160.266 1250.47 162.6 1239.54 162.6ZM1239.54 133C1246.07 133 1251.6 130.6 1256.14 125.8C1260.8 121 1263.14 114.133 1263.14 105.2C1263.14 96.2665 1260.87 89.3998 1256.34 84.5998C1251.94 79.7998 1246.47 77.3998 1239.94 77.3998C1233.27 77.3998 1227.74 79.7998 1223.34 84.5998C1218.94 89.2665 1216.74 96.1331 1216.74 105.2C1216.74 114.133 1218.87 121 1223.14 125.8C1227.54 130.6 1233 133 1239.54 133Z" fill="#CCF381"/>
<path d="M1384.08 48.1998C1397.15 48.1998 1407.55 52.4665 1415.28 60.9998C1423.15 69.3998 1427.08 80.9998 1427.08 95.7998V161H1393.08V100.4C1393.08 92.9331 1391.15 87.1331 1387.28 82.9998C1383.41 78.8665 1378.21 76.7998 1371.68 76.7998C1365.15 76.7998 1359.95 78.8665 1356.08 82.9998C1352.21 87.1331 1350.28 92.9331 1350.28 100.4V161H1316.08V49.3998H1350.28V64.1998C1353.75 59.2665 1358.41 55.3998 1364.28 52.5998C1370.15 49.6665 1376.75 48.1998 1384.08 48.1998Z" fill="#CCF381"/>
</svg>
