<svg viewBox="0 0 1470 215" fill="none" xmlns="http://www.w3.org/2000/svg">
<path d="M36.4 37.8C30.4 37.8 25.4667 36.0667 21.6 32.6C17.8667 29 16 24.6 16 19.4C16 14.0667 17.8667 9.66666 21.6 6.19999C25.4667 2.59999 30.4 0.799988 36.4 0.799988C42.2667 0.799988 47.0667 2.59999 50.8 6.19999C54.6667 9.66666 56.6 14.0667 56.6 19.4C56.6 24.6 54.6667 29 50.8 32.6C47.0667 36.0667 42.2667 37.8 36.4 37.8ZM53.6 175.4C53.6 189.133 50.1333 199 43.2 205C36.2667 211.133 26.6 214.2 14.2 214.2H0.8V185.2H9C12.7333 185.2 15.4 184.467 17 183C18.6 181.533 19.4 179.133 19.4 175.8V49.4H53.6V175.4ZM71.3891 105C71.3891 93.5333 73.5224 83.4667 77.7891 74.8C82.1891 66.1333 88.1224 59.4667 95.5891 54.8C103.056 50.1333 111.389 47.8 120.589 47.8C128.456 47.8 135.322 49.4 141.189 52.6C147.189 55.8 151.789 60 154.989 65.2V49.4H189.189V161H154.989V145.2C151.656 150.4 146.989 154.6 140.989 157.8C135.122 161 128.256 162.6 120.389 162.6C111.322 162.6 103.056 160.267 95.5891 155.6C88.1224 150.8 82.1891 144.067 77.7891 135.4C73.5224 126.6 71.3891 116.467 71.3891 105ZM154.989 105.2C154.989 96.6667 152.589 89.9333 147.789 85C143.122 80.0667 137.389 77.6 130.589 77.6C123.789 77.6 117.989 80.0667 113.189 85C108.522 89.8 106.189 96.4667 106.189 105C106.189 113.533 108.522 120.333 113.189 125.4C117.989 130.333 123.789 132.8 130.589 132.8C137.389 132.8 143.122 130.333 147.789 125.4C152.589 120.467 154.989 113.733 154.989 105.2ZM356.331 48.2C370.198 48.2 381.198 52.4 389.331 60.8C397.598 69.2 401.731 80.8667 401.731 95.8V161H367.731V100.4C367.731 93.2 365.798 87.6667 361.931 83.8C358.198 79.8 352.998 77.8 346.331 77.8C339.665 77.8 334.398 79.8 330.531 83.8C326.798 87.6667 324.931 93.2 324.931 100.4V161H290.931V100.4C290.931 93.2 288.998 87.6667 285.131 83.8C281.398 79.8 276.198 77.8 269.531 77.8C262.865 77.8 257.598 79.8 253.731 83.8C249.998 87.6667 248.131 93.2 248.131 100.4V161H213.931V49.4H248.131V63.4C251.598 58.7333 256.131 55.0667 261.731 52.4C267.331 49.6 273.665 48.2 280.731 48.2C289.131 48.2 296.598 50 303.131 53.6C309.798 57.2 314.998 62.3333 318.731 69C322.598 62.8667 327.865 57.8667 334.531 54C341.198 50.1333 348.465 48.2 356.331 48.2ZM530.85 103.4C530.85 106.6 530.65 109.933 530.25 113.4H452.85C453.383 120.333 455.583 125.667 459.45 129.4C463.45 133 468.317 134.8 474.05 134.8C482.583 134.8 488.517 131.2 491.85 124H528.25C526.383 131.333 522.983 137.933 518.05 143.8C513.25 149.667 507.183 154.267 499.85 157.6C492.517 160.933 484.317 162.6 475.25 162.6C464.317 162.6 454.583 160.267 446.05 155.6C437.517 150.933 430.85 144.267 426.05 135.6C421.25 126.933 418.85 116.8 418.85 105.2C418.85 93.6 421.183 83.4667 425.85 74.8C430.65 66.1333 437.317 59.4667 445.85 54.8C454.383 50.1333 464.183 47.8 475.25 47.8C486.05 47.8 495.65 50.0667 504.05 54.6C512.45 59.1333 518.983 65.6 523.65 74C528.45 82.4 530.85 92.2 530.85 103.4ZM495.85 94.4C495.85 88.5333 493.85 83.8667 489.85 80.4C485.85 76.9333 480.85 75.2 474.85 75.2C469.117 75.2 464.25 76.8667 460.25 80.2C456.383 83.5333 453.983 88.2667 453.05 94.4H495.85ZM594.292 162.6C584.559 162.6 575.892 160.933 568.292 157.6C560.692 154.267 554.692 149.733 550.292 144C545.892 138.133 543.426 131.6 542.892 124.4H576.692C577.092 128.267 578.892 131.4 582.092 133.8C585.292 136.2 589.226 137.4 593.892 137.4C598.159 137.4 601.426 136.6 603.692 135C606.092 133.267 607.292 131.067 607.292 128.4C607.292 125.2 605.626 122.867 602.292 121.4C598.959 119.8 593.559 118.067 586.092 116.2C578.092 114.333 571.426 112.4 566.092 110.4C560.759 108.267 556.159 105 552.292 100.6C548.426 96.0667 546.492 90 546.492 82.4C546.492 76 548.226 70.2 551.692 65C555.292 59.6667 560.492 55.4667 567.292 52.4C574.226 49.3333 582.426 47.8 591.892 47.8C605.892 47.8 616.892 51.2667 624.892 58.2C633.026 65.1333 637.692 74.3333 638.892 85.8H607.292C606.759 81.9333 605.026 78.8667 602.092 76.6C599.292 74.3333 595.559 73.2 590.892 73.2C586.892 73.2 583.826 74 581.692 75.6C579.559 77.0667 578.492 79.1333 578.492 81.8C578.492 85 580.159 87.4 583.492 89C586.959 90.6 592.292 92.2 599.492 93.8C607.759 95.9333 614.492 98.0667 619.692 100.2C624.892 102.2 629.426 105.533 633.292 110.2C637.292 114.733 639.359 120.867 639.492 128.6C639.492 135.133 637.626 141 633.892 146.2C630.292 151.267 625.026 155.267 618.092 158.2C611.292 161.133 603.359 162.6 594.292 162.6ZM824.398 20.6V161H790.198V103.2H736.998V161H702.798V20.6H736.998V75.6H790.198V20.6H824.398ZM959.288 49.4V161H925.088V145.8C921.621 150.733 916.888 154.733 910.888 157.8C905.021 160.733 898.488 162.2 891.288 162.2C882.754 162.2 875.221 160.333 868.688 156.6C862.154 152.733 857.088 147.2 853.488 140C849.888 132.8 848.088 124.333 848.088 114.6V49.4H882.088V110C882.088 117.467 884.021 123.267 887.888 127.4C891.754 131.533 896.954 133.6 903.488 133.6C910.154 133.6 915.421 131.533 919.288 127.4C923.154 123.267 925.088 117.467 925.088 110V49.4H959.288ZM977.053 105C977.053 93.5333 979.186 83.4667 983.453 74.8C987.853 66.1333 993.786 59.4667 1001.25 54.8C1008.72 50.1333 1017.05 47.8 1026.25 47.8C1033.59 47.8 1040.25 49.3333 1046.25 52.4C1052.39 55.4667 1057.19 59.6 1060.65 64.8V13H1094.85V161H1060.65V145C1057.45 150.333 1052.85 154.6 1046.85 157.8C1040.99 161 1034.12 162.6 1026.25 162.6C1017.05 162.6 1008.72 160.267 1001.25 155.6C993.786 150.8 987.853 144.067 983.453 135.4C979.186 126.6 977.053 116.467 977.053 105ZM1060.65 105.2C1060.65 96.6667 1058.25 89.9333 1053.45 85C1048.79 80.0667 1043.05 77.6 1036.25 77.6C1029.45 77.6 1023.65 80.0667 1018.85 85C1014.19 89.8 1011.85 96.4667 1011.85 105C1011.85 113.533 1014.19 120.333 1018.85 125.4C1023.65 130.333 1029.45 132.8 1036.25 132.8C1043.05 132.8 1048.79 130.333 1053.45 125.4C1058.25 120.467 1060.65 113.733 1060.65 105.2ZM1165 162.6C1155.26 162.6 1146.6 160.933 1139 157.6C1131.4 154.267 1125.4 149.733 1121 144C1116.6 138.133 1114.13 131.6 1113.6 124.4H1147.4C1147.8 128.267 1149.6 131.4 1152.8 133.8C1156 136.2 1159.93 137.4 1164.6 137.4C1168.86 137.4 1172.13 136.6 1174.4 135C1176.8 133.267 1178 131.067 1178 128.4C1178 125.2 1176.33 122.867 1173 121.4C1169.66 119.8 1164.26 118.067 1156.8 116.2C1148.8 114.333 1142.13 112.4 1136.8 110.4C1131.46 108.267 1126.86 105 1123 100.6C1119.13 96.0667 1117.2 90 1117.2 82.4C1117.2 76 1118.93 70.2 1122.4 65C1126 59.6667 1131.2 55.4667 1138 52.4C1144.93 49.3333 1153.13 47.8 1162.6 47.8C1176.6 47.8 1187.6 51.2667 1195.6 58.2C1203.73 65.1333 1208.4 74.3333 1209.6 85.8H1178C1177.46 81.9333 1175.73 78.8667 1172.8 76.6C1170 74.3333 1166.26 73.2 1161.6 73.2C1157.6 73.2 1154.53 74 1152.4 75.6C1150.26 77.0667 1149.2 79.1333 1149.2 81.8C1149.2 85 1150.86 87.4 1154.2 89C1157.66 90.6 1163 92.2 1170.2 93.8C1178.46 95.9333 1185.2 98.0667 1190.4 100.2C1195.6 102.2 1200.13 105.533 1204 110.2C1208 114.733 1210.06 120.867 1210.2 128.6C1210.2 135.133 1208.33 141 1204.6 146.2C1201 151.267 1195.73 155.267 1188.8 158.2C1182 161.133 1174.06 162.6 1165 162.6ZM1281.92 162.6C1270.99 162.6 1261.12 160.267 1252.32 155.6C1243.65 150.933 1236.79 144.267 1231.72 135.6C1226.79 126.933 1224.32 116.8 1224.32 105.2C1224.32 93.7333 1226.85 83.6667 1231.92 75C1236.99 66.2 1243.92 59.4667 1252.72 54.8C1261.52 50.1333 1271.39 47.8 1282.32 47.8C1293.25 47.8 1303.12 50.1333 1311.92 54.8C1320.72 59.4667 1327.65 66.2 1332.72 75C1337.79 83.6667 1340.32 93.7333 1340.32 105.2C1340.32 116.667 1337.72 126.8 1332.52 135.6C1327.45 144.267 1320.45 150.933 1311.52 155.6C1302.72 160.267 1292.85 162.6 1281.92 162.6ZM1281.92 133C1288.45 133 1293.99 130.6 1298.52 125.8C1303.19 121 1305.52 114.133 1305.52 105.2C1305.52 96.2667 1303.25 89.4 1298.72 84.6C1294.32 79.8 1288.85 77.4 1282.32 77.4C1275.65 77.4 1270.12 79.8 1265.72 84.6C1261.32 89.2667 1259.12 96.1333 1259.12 105.2C1259.12 114.133 1261.25 121 1265.52 125.8C1269.92 130.6 1275.39 133 1281.92 133ZM1426.46 48.2C1439.53 48.2 1449.93 52.4667 1457.66 61C1465.53 69.4 1469.46 81 1469.46 95.8V161H1435.46V100.4C1435.46 92.9333 1433.53 87.1333 1429.66 83C1425.8 78.8667 1420.6 76.8 1414.06 76.8C1407.53 76.8 1402.33 78.8667 1398.46 83C1394.6 87.1333 1392.66 92.9333 1392.66 100.4V161H1358.46V49.4H1392.66V64.2C1396.13 59.2667 1400.8 55.4 1406.66 52.6C1412.53 49.6667 1419.13 48.2 1426.46 48.2Z" fill="#3B15D1"/>
</svg>
